%TF.GenerationSoftware,KiCad,Pcbnew,4.0.4-stable*%
%TF.CreationDate,2016-11-25T12:07:11+01:00*%
%TF.ProjectId,ISPboard,495350626F6172642E6B696361645F70,rev?*%
%TF.FileFunction,Copper,L1,Top,Signal*%
%FSLAX46Y46*%
G04 Gerber Fmt 4.6, Leading zero omitted, Abs format (unit mm)*
G04 Created by KiCad (PCBNEW 4.0.4-stable) date 11/25/16 12:07:11*
%MOMM*%
%LPD*%
G01*
G04 APERTURE LIST*
%ADD10C,0.100000*%
%ADD11C,2.500000*%
%ADD12R,1.998980X1.998980*%
%ADD13R,1.900000X2.000000*%
%ADD14C,1.900000*%
%ADD15O,2.300000X1.600000*%
%ADD16R,2.600000X2.000000*%
%ADD17O,2.600000X2.000000*%
%ADD18R,1.727200X1.727200*%
%ADD19O,1.727200X1.727200*%
%ADD20C,3.000000*%
%ADD21C,2.000000*%
%ADD22C,0.500000*%
%ADD23C,0.800000*%
G04 APERTURE END LIST*
D10*
D11*
X110015134Y-109329131D03*
D12*
X113825134Y-109329131D03*
D13*
X158325134Y-93829131D03*
D14*
X155785134Y-93829131D03*
D13*
X158325134Y-100329131D03*
D14*
X155785134Y-100329131D03*
D15*
X122500000Y-93500000D03*
X122500000Y-96040000D03*
X122500000Y-98580000D03*
X122500000Y-101120000D03*
X122500000Y-103660000D03*
X122500000Y-106200000D03*
X122500000Y-108740000D03*
X122500000Y-111280000D03*
X122500000Y-113820000D03*
X122500000Y-116360000D03*
X122500000Y-118900000D03*
X122500000Y-121440000D03*
X122500000Y-123980000D03*
X122500000Y-126520000D03*
X130120000Y-126520000D03*
X130120000Y-123980000D03*
X130120000Y-121440000D03*
X130120000Y-118900000D03*
X130120000Y-116360000D03*
X130120000Y-113820000D03*
X130120000Y-111280000D03*
X130120000Y-108740000D03*
X130120000Y-106200000D03*
X130120000Y-103660000D03*
X130120000Y-101120000D03*
X130120000Y-98580000D03*
X130120000Y-96040000D03*
X130120000Y-93500000D03*
D16*
X114000000Y-118500000D03*
D17*
X114000000Y-115960000D03*
D18*
X123325134Y-135329131D03*
D19*
X123325134Y-132789131D03*
X125865134Y-135329131D03*
X125865134Y-132789131D03*
X128405134Y-135329131D03*
X128405134Y-132789131D03*
D16*
X138325134Y-116829131D03*
D17*
X138325134Y-114289131D03*
D16*
X138325134Y-107829131D03*
D17*
X138325134Y-105289131D03*
D16*
X115325134Y-98329131D03*
D17*
X115325134Y-100869131D03*
D16*
X137825134Y-98329131D03*
D17*
X137825134Y-95789131D03*
D16*
X144825134Y-129329131D03*
D17*
X144825134Y-126789131D03*
D20*
X149824494Y-93829131D03*
D11*
X144823234Y-93829131D03*
D20*
X149324494Y-100329131D03*
D11*
X144323234Y-100329131D03*
D21*
X156825134Y-107329131D03*
D20*
X156825134Y-111829131D03*
D21*
X150325134Y-107329131D03*
D20*
X150325134Y-111829131D03*
D21*
X156825134Y-116829131D03*
D20*
X156825134Y-121329131D03*
D21*
X150325134Y-116829131D03*
X150325134Y-121329131D03*
D22*
X114000000Y-115960000D02*
X113956003Y-115960000D01*
X113956003Y-115960000D02*
X110015134Y-112019131D01*
X110015134Y-112019131D02*
X110015134Y-109329131D01*
X113825134Y-109329131D02*
X121910869Y-109329131D01*
X121910869Y-109329131D02*
X122500000Y-108740000D01*
X149824494Y-93829131D02*
X155785134Y-93829131D01*
X149324494Y-100329131D02*
X155785134Y-100329131D01*
X123325134Y-135329131D02*
X118325134Y-135329131D01*
X112654265Y-93500000D02*
X122500000Y-93500000D01*
X107325134Y-98829131D02*
X112654265Y-93500000D01*
X107325134Y-124329131D02*
X107325134Y-98829131D01*
X118325134Y-135329131D02*
X107325134Y-124329131D01*
X115325134Y-98329131D02*
X116325134Y-98329131D01*
X116325134Y-98329131D02*
X118614265Y-96040000D01*
X118614265Y-96040000D02*
X122500000Y-96040000D01*
X115325134Y-100869131D02*
X117785134Y-100869131D01*
X120074265Y-98580000D02*
X122500000Y-98580000D01*
X117785134Y-100869131D02*
X120074265Y-98580000D01*
X125865134Y-132789131D02*
X125865134Y-125694866D01*
X125865134Y-125694866D02*
X130120000Y-121440000D01*
X128405134Y-135329131D02*
X131825134Y-135329131D01*
X135325134Y-124105134D02*
X130120000Y-118900000D01*
X135325134Y-131829131D02*
X135325134Y-124105134D01*
X131825134Y-135329131D02*
X135325134Y-131829131D01*
X125865134Y-135329131D02*
X125865134Y-136369131D01*
X137825134Y-124065134D02*
X130120000Y-116360000D01*
X137825134Y-132329131D02*
X137825134Y-124065134D01*
X132325134Y-137829131D02*
X137825134Y-132329131D01*
X127325134Y-137829131D02*
X132325134Y-137829131D01*
X125865134Y-136369131D02*
X127325134Y-137829131D01*
X138325134Y-107829131D02*
X133825134Y-107829131D01*
X132196003Y-106200000D02*
X130120000Y-106200000D01*
X133825134Y-107829131D02*
X132196003Y-106200000D01*
X138325134Y-105289131D02*
X135785134Y-105289131D01*
X134156003Y-103660000D02*
X130120000Y-103660000D01*
X135785134Y-105289131D02*
X134156003Y-103660000D01*
X137825134Y-98329131D02*
X142323234Y-98329131D01*
X142323234Y-98329131D02*
X144323234Y-100329131D01*
X137825134Y-95789131D02*
X142863234Y-95789131D01*
X142863234Y-95789131D02*
X144823234Y-93829131D01*
X144825134Y-129329131D02*
X149825134Y-129329131D01*
X149825134Y-129329131D02*
X156825134Y-122329131D01*
X156825134Y-122329131D02*
X156825134Y-121329131D01*
X144825134Y-126789131D02*
X144825134Y-115329131D01*
X148325134Y-111829131D02*
X150325134Y-111829131D01*
X144825134Y-115329131D02*
X148325134Y-111829131D01*
D23*
X105983000Y-90983000D02*
X184017000Y-90983000D01*
X105983000Y-91623000D02*
X148856509Y-91623000D01*
X150790526Y-91623000D02*
X184017000Y-91623000D01*
X105983000Y-92263000D02*
X120967246Y-92263000D01*
X124030254Y-92263000D02*
X128587246Y-92263000D01*
X131650254Y-92263000D02*
X143338041Y-92263000D01*
X146309405Y-92263000D02*
X147981972Y-92263000D01*
X151663005Y-92263000D02*
X154785073Y-92263000D01*
X156786038Y-92263000D02*
X184017000Y-92263000D01*
X105983000Y-92903000D02*
X111613606Y-92903000D01*
X124456194Y-92903000D02*
X128165418Y-92903000D01*
X132076194Y-92903000D02*
X142872215Y-92903000D01*
X146775730Y-92903000D02*
X147601469Y-92903000D01*
X157400613Y-92903000D02*
X184017000Y-92903000D01*
X105983000Y-93543000D02*
X110973606Y-93543000D01*
X124564649Y-93543000D02*
X128057082Y-93543000D01*
X132184649Y-93543000D02*
X142677748Y-93543000D01*
X146966571Y-93543000D02*
X147423412Y-93543000D01*
X157622633Y-93543000D02*
X184017000Y-93543000D01*
X105983000Y-94183000D02*
X110333606Y-94183000D01*
X124423078Y-94183000D02*
X128198981Y-94183000D01*
X132043078Y-94183000D02*
X136490396Y-94183000D01*
X139155906Y-94183000D02*
X142694041Y-94183000D01*
X146955926Y-94183000D02*
X147441115Y-94183000D01*
X157610167Y-94183000D02*
X184017000Y-94183000D01*
X105983000Y-94823000D02*
X109693606Y-94823000D01*
X124054089Y-94823000D02*
X128562723Y-94823000D01*
X131674089Y-94823000D02*
X135878139Y-94823000D01*
X146743061Y-94823000D02*
X147628014Y-94823000D01*
X157357904Y-94823000D02*
X184017000Y-94823000D01*
X105983000Y-95463000D02*
X109053606Y-95463000D01*
X124462080Y-95463000D02*
X128159227Y-95463000D01*
X132082080Y-95463000D02*
X135639374Y-95463000D01*
X146236899Y-95463000D02*
X148054645Y-95463000D01*
X151600692Y-95463000D02*
X154883762Y-95463000D01*
X156678255Y-95463000D02*
X184017000Y-95463000D01*
X105983000Y-96103000D02*
X108413606Y-96103000D01*
X124562547Y-96103000D02*
X128058902Y-96103000D01*
X132182547Y-96103000D02*
X135636273Y-96103000D01*
X144187025Y-96103000D02*
X149014165Y-96103000D01*
X150621233Y-96103000D02*
X184017000Y-96103000D01*
X105983000Y-96743000D02*
X107773606Y-96743000D01*
X124412264Y-96743000D02*
X128209437Y-96743000D01*
X132032264Y-96743000D02*
X135837798Y-96743000D01*
X143517124Y-96743000D02*
X184017000Y-96743000D01*
X105983000Y-97383000D02*
X107133606Y-97383000D01*
X124077924Y-97383000D02*
X128544162Y-97383000D01*
X131697924Y-97383000D02*
X135612741Y-97383000D01*
X142988609Y-97383000D02*
X184017000Y-97383000D01*
X105983000Y-98023000D02*
X106495873Y-98023000D01*
X124467966Y-98023000D02*
X128153035Y-98023000D01*
X132087966Y-98023000D02*
X135612741Y-98023000D01*
X143654763Y-98023000D02*
X148604017Y-98023000D01*
X150052634Y-98023000D02*
X184017000Y-98023000D01*
X105983000Y-98663000D02*
X106183606Y-98663000D01*
X124560445Y-98663000D02*
X128060722Y-98663000D01*
X132180445Y-98663000D02*
X135612741Y-98663000D01*
X145710101Y-98663000D02*
X147584089Y-98663000D01*
X151063701Y-98663000D02*
X154948871Y-98663000D01*
X156616417Y-98663000D02*
X184017000Y-98663000D01*
X105983000Y-99303000D02*
X106167134Y-99303000D01*
X124401450Y-99303000D02*
X128219893Y-99303000D01*
X132021450Y-99303000D02*
X135612741Y-99303000D01*
X146232468Y-99303000D02*
X147144329Y-99303000D01*
X157334173Y-99303000D02*
X184017000Y-99303000D01*
X105983000Y-99943000D02*
X106167134Y-99943000D01*
X124094770Y-99943000D02*
X128527617Y-99943000D01*
X131714770Y-99943000D02*
X135852802Y-99943000D01*
X139788830Y-99943000D02*
X142199003Y-99943000D01*
X146446770Y-99943000D02*
X146944667Y-99943000D01*
X157602832Y-99943000D02*
X184017000Y-99943000D01*
X105983000Y-100583000D02*
X106167134Y-100583000D01*
X124473853Y-100583000D02*
X128146844Y-100583000D01*
X132093853Y-100583000D02*
X142175688Y-100583000D01*
X146474826Y-100583000D02*
X146922762Y-100583000D01*
X157632886Y-100583000D02*
X184017000Y-100583000D01*
X105983000Y-101223000D02*
X106167134Y-101223000D01*
X124558343Y-101223000D02*
X128062542Y-101223000D01*
X132178343Y-101223000D02*
X142356053Y-101223000D01*
X146287584Y-101223000D02*
X147088421Y-101223000D01*
X157421079Y-101223000D02*
X184017000Y-101223000D01*
X105983000Y-101863000D02*
X106167134Y-101863000D01*
X124390636Y-101863000D02*
X128230349Y-101863000D01*
X132010636Y-101863000D02*
X142804371Y-101863000D01*
X145841909Y-101863000D02*
X147458076Y-101863000D01*
X151189440Y-101863000D02*
X154736369Y-101863000D01*
X156835830Y-101863000D02*
X184017000Y-101863000D01*
X105983000Y-102503000D02*
X106167134Y-102503000D01*
X124110850Y-102503000D02*
X128511071Y-102503000D01*
X134180079Y-102503000D02*
X148285274Y-102503000D01*
X150379048Y-102503000D02*
X184017000Y-102503000D01*
X105983000Y-103143000D02*
X106167134Y-103143000D01*
X124479739Y-103143000D02*
X128140653Y-103143000D01*
X135276663Y-103143000D02*
X184017000Y-103143000D01*
X105983000Y-103783000D02*
X106167134Y-103783000D01*
X124556241Y-103783000D02*
X128064362Y-103783000D01*
X135916663Y-103783000D02*
X136856710Y-103783000D01*
X139795036Y-103783000D02*
X184017000Y-103783000D01*
X105983000Y-104423000D02*
X106167134Y-104423000D01*
X124379822Y-104423000D02*
X128240804Y-104423000D01*
X140325745Y-104423000D02*
X184017000Y-104423000D01*
X105983000Y-105063000D02*
X106167134Y-105063000D01*
X124126931Y-105063000D02*
X128494526Y-105063000D01*
X140521980Y-105063000D02*
X184017000Y-105063000D01*
X105983000Y-105703000D02*
X106167134Y-105703000D01*
X124485625Y-105703000D02*
X128134462Y-105703000D01*
X140495495Y-105703000D02*
X184017000Y-105703000D01*
X105983000Y-106343000D02*
X106167134Y-106343000D01*
X124554139Y-106343000D02*
X128066182Y-106343000D01*
X140386600Y-106343000D02*
X184017000Y-106343000D01*
X105983000Y-106983000D02*
X106167134Y-106983000D01*
X124369008Y-106983000D02*
X128251260Y-106983000D01*
X140537527Y-106983000D02*
X184017000Y-106983000D01*
X105983000Y-107623000D02*
X106167134Y-107623000D01*
X124143011Y-107623000D02*
X128820009Y-107623000D01*
X131424453Y-107623000D02*
X131981343Y-107623000D01*
X140537527Y-107623000D02*
X184017000Y-107623000D01*
X105983000Y-108263000D02*
X106167134Y-108263000D01*
X124491512Y-108263000D02*
X132621343Y-108263000D01*
X140537527Y-108263000D02*
X184017000Y-108263000D01*
X105983000Y-108903000D02*
X106167134Y-108903000D01*
X124552037Y-108903000D02*
X133395793Y-108903000D01*
X140527029Y-108903000D02*
X184017000Y-108903000D01*
X105983000Y-109543000D02*
X106167134Y-109543000D01*
X124358194Y-109543000D02*
X136470132Y-109543000D01*
X140183494Y-109543000D02*
X149555155Y-109543000D01*
X151100853Y-109543000D02*
X156055155Y-109543000D01*
X157600853Y-109543000D02*
X184017000Y-109543000D01*
X105983000Y-110183000D02*
X106167134Y-110183000D01*
X123766838Y-110183000D02*
X128461435Y-110183000D01*
X131779092Y-110183000D02*
X148564305Y-110183000D01*
X152084202Y-110183000D02*
X155064305Y-110183000D01*
X158584202Y-110183000D02*
X184017000Y-110183000D01*
X105983000Y-110823000D02*
X106167134Y-110823000D01*
X111575813Y-110823000D02*
X112069613Y-110823000D01*
X115590160Y-110823000D02*
X128122080Y-110823000D01*
X132117398Y-110823000D02*
X147761869Y-110823000D01*
X152515070Y-110823000D02*
X154636397Y-110823000D01*
X159015070Y-110823000D02*
X184017000Y-110823000D01*
X105983000Y-111463000D02*
X106167134Y-111463000D01*
X108483134Y-111463000D02*
X108857134Y-111463000D01*
X111173134Y-111463000D02*
X128069823Y-111463000D01*
X132169935Y-111463000D02*
X147053606Y-111463000D01*
X152707494Y-111463000D02*
X154441056Y-111463000D01*
X159207494Y-111463000D02*
X184017000Y-111463000D01*
X105983000Y-112103000D02*
X106167134Y-112103000D01*
X108483134Y-112103000D02*
X108865357Y-112103000D01*
X111736663Y-112103000D02*
X128272172Y-112103000D01*
X131967380Y-112103000D02*
X146413606Y-112103000D01*
X152726115Y-112103000D02*
X154427072Y-112103000D01*
X159226115Y-112103000D02*
X184017000Y-112103000D01*
X105983000Y-112743000D02*
X106167134Y-112743000D01*
X108483134Y-112743000D02*
X109118336Y-112743000D01*
X112376663Y-112743000D02*
X120824890Y-112743000D01*
X124175172Y-112743000D02*
X128444890Y-112743000D01*
X131795172Y-112743000D02*
X136905755Y-112743000D01*
X139747366Y-112743000D02*
X145773606Y-112743000D01*
X152554250Y-112743000D02*
X154596980Y-112743000D01*
X159054250Y-112743000D02*
X184017000Y-112743000D01*
X105983000Y-113383000D02*
X106167134Y-113383000D01*
X108483134Y-113383000D02*
X109741343Y-113383000D01*
X113016663Y-113383000D02*
X120495889Y-113383000D01*
X124503284Y-113383000D02*
X128115889Y-113383000D01*
X132123284Y-113383000D02*
X136345697Y-113383000D01*
X140304833Y-113383000D02*
X145133606Y-113383000D01*
X148408924Y-113383000D02*
X148478029Y-113383000D01*
X152175972Y-113383000D02*
X154978030Y-113383000D01*
X158675972Y-113383000D02*
X184017000Y-113383000D01*
X105983000Y-114023000D02*
X106167134Y-114023000D01*
X108483134Y-114023000D02*
X110381343Y-114023000D01*
X113656663Y-114023000D02*
X120451643Y-114023000D01*
X124547833Y-114023000D02*
X128071643Y-114023000D01*
X132167833Y-114023000D02*
X136133068Y-114023000D01*
X140518340Y-114023000D02*
X144493606Y-114023000D01*
X147768924Y-114023000D02*
X149331692Y-114023000D01*
X151328125Y-114023000D02*
X155831692Y-114023000D01*
X157828125Y-114023000D02*
X184017000Y-114023000D01*
X105983000Y-114663000D02*
X106167134Y-114663000D01*
X108483134Y-114663000D02*
X111021343Y-114663000D01*
X115704417Y-114663000D02*
X120662628Y-114663000D01*
X124336566Y-114663000D02*
X128282628Y-114663000D01*
X131956566Y-114663000D02*
X136145056Y-114663000D01*
X140505876Y-114663000D02*
X143879638Y-114663000D01*
X147128924Y-114663000D02*
X184017000Y-114663000D01*
X105983000Y-115303000D02*
X106167134Y-115303000D01*
X108483134Y-115303000D02*
X111661343Y-115303000D01*
X116096748Y-115303000D02*
X120808344Y-115303000D01*
X124191252Y-115303000D02*
X128428344Y-115303000D01*
X131811252Y-115303000D02*
X136286660Y-115303000D01*
X140360241Y-115303000D02*
X143668365Y-115303000D01*
X146488924Y-115303000D02*
X184017000Y-115303000D01*
X105983000Y-115943000D02*
X106167134Y-115943000D01*
X108483134Y-115943000D02*
X111781749Y-115943000D01*
X116215879Y-115943000D02*
X120489698Y-115943000D01*
X124509171Y-115943000D02*
X128109698Y-115943000D01*
X132129171Y-115943000D02*
X136112741Y-115943000D01*
X140537527Y-115943000D02*
X143667134Y-115943000D01*
X145983134Y-115943000D02*
X184017000Y-115943000D01*
X105983000Y-116583000D02*
X106167134Y-116583000D01*
X108483134Y-116583000D02*
X111893245Y-116583000D01*
X116105624Y-116583000D02*
X120453463Y-116583000D01*
X124545731Y-116583000D02*
X128073463Y-116583000D01*
X132165731Y-116583000D02*
X136112741Y-116583000D01*
X140537527Y-116583000D02*
X143667134Y-116583000D01*
X145983134Y-116583000D02*
X184017000Y-116583000D01*
X105983000Y-117223000D02*
X106167134Y-117223000D01*
X108483134Y-117223000D02*
X112268246Y-117223000D01*
X115730292Y-117223000D02*
X120673083Y-117223000D01*
X124325752Y-117223000D02*
X128293083Y-117223000D01*
X132620660Y-117223000D02*
X136112741Y-117223000D01*
X140537527Y-117223000D02*
X143667134Y-117223000D01*
X145983134Y-117223000D02*
X184017000Y-117223000D01*
X105983000Y-117863000D02*
X106167134Y-117863000D01*
X108483134Y-117863000D02*
X113619757Y-117863000D01*
X114361677Y-117863000D02*
X120791799Y-117863000D01*
X124207333Y-117863000D02*
X128411799Y-117863000D01*
X133260660Y-117863000D02*
X136115441Y-117863000D01*
X140532713Y-117863000D02*
X143667134Y-117863000D01*
X145983134Y-117863000D02*
X184017000Y-117863000D01*
X105983000Y-118503000D02*
X106167134Y-118503000D01*
X108483134Y-118503000D02*
X120483507Y-118503000D01*
X124515057Y-118503000D02*
X128103507Y-118503000D01*
X133900660Y-118503000D02*
X136423200Y-118503000D01*
X140237692Y-118503000D02*
X143667134Y-118503000D01*
X145983134Y-118503000D02*
X184017000Y-118503000D01*
X105983000Y-119143000D02*
X106167134Y-119143000D01*
X108483134Y-119143000D02*
X120455283Y-119143000D01*
X124543629Y-119143000D02*
X128075283Y-119143000D01*
X134540660Y-119143000D02*
X143667134Y-119143000D01*
X145983134Y-119143000D02*
X155807647Y-119143000D01*
X157838744Y-119143000D02*
X184017000Y-119143000D01*
X105983000Y-119783000D02*
X106167134Y-119783000D01*
X108483134Y-119783000D02*
X120683539Y-119783000D01*
X124314938Y-119783000D02*
X128303539Y-119783000D01*
X135180660Y-119783000D02*
X143667134Y-119783000D01*
X145983134Y-119783000D02*
X149203191Y-119783000D01*
X151445108Y-119783000D02*
X154965281Y-119783000D01*
X158683506Y-119783000D02*
X184017000Y-119783000D01*
X105983000Y-120423000D02*
X106167134Y-120423000D01*
X108483134Y-120423000D02*
X120775254Y-120423000D01*
X124223413Y-120423000D02*
X128395254Y-120423000D01*
X135820660Y-120423000D02*
X143667134Y-120423000D01*
X145983134Y-120423000D02*
X148637550Y-120423000D01*
X152013933Y-120423000D02*
X154593537Y-120423000D01*
X159056287Y-120423000D02*
X184017000Y-120423000D01*
X105983000Y-121063000D02*
X106167134Y-121063000D01*
X108483134Y-121063000D02*
X120477316Y-121063000D01*
X124520943Y-121063000D02*
X128097316Y-121063000D01*
X136460660Y-121063000D02*
X143667134Y-121063000D01*
X145983134Y-121063000D02*
X148430993Y-121063000D01*
X152217566Y-121063000D02*
X154420512Y-121063000D01*
X159227295Y-121063000D02*
X184017000Y-121063000D01*
X105983000Y-121703000D02*
X106167134Y-121703000D01*
X108483134Y-121703000D02*
X120457103Y-121703000D01*
X124541527Y-121703000D02*
X128077103Y-121703000D01*
X137100660Y-121703000D02*
X143667134Y-121703000D01*
X145983134Y-121703000D02*
X148453799Y-121703000D01*
X152196900Y-121703000D02*
X154445426Y-121703000D01*
X159209663Y-121703000D02*
X184017000Y-121703000D01*
X105983000Y-122343000D02*
X106167134Y-122343000D01*
X108483134Y-122343000D02*
X120693995Y-122343000D01*
X124304124Y-122343000D02*
X127579340Y-122343000D01*
X137740660Y-122343000D02*
X143667134Y-122343000D01*
X145983134Y-122343000D02*
X148708533Y-122343000D01*
X151944987Y-122343000D02*
X154636572Y-122343000D01*
X159009727Y-122343000D02*
X184017000Y-122343000D01*
X105983000Y-122983000D02*
X106167134Y-122983000D01*
X108483134Y-122983000D02*
X120758708Y-122983000D01*
X124239494Y-122983000D02*
X126939340Y-122983000D01*
X138380660Y-122983000D02*
X143667134Y-122983000D01*
X145983134Y-122983000D02*
X149361413Y-122983000D01*
X151280058Y-122983000D02*
X154533605Y-122983000D01*
X158580330Y-122983000D02*
X184017000Y-122983000D01*
X105983000Y-123623000D02*
X106167134Y-123623000D01*
X108483134Y-123623000D02*
X120471125Y-123623000D01*
X124526830Y-123623000D02*
X126299340Y-123623000D01*
X138895304Y-123623000D02*
X143667134Y-123623000D01*
X145983134Y-123623000D02*
X153893605Y-123623000D01*
X157570310Y-123623000D02*
X184017000Y-123623000D01*
X105983000Y-124263000D02*
X106167134Y-124263000D01*
X108896663Y-124263000D02*
X120458923Y-124263000D01*
X124539425Y-124263000D02*
X125659340Y-124263000D01*
X138983134Y-124263000D02*
X143667134Y-124263000D01*
X145983134Y-124263000D02*
X153253605Y-124263000D01*
X156528925Y-124263000D02*
X184017000Y-124263000D01*
X105983000Y-124903000D02*
X106324498Y-124903000D01*
X109536663Y-124903000D02*
X120704451Y-124903000D01*
X124293310Y-124903000D02*
X125024156Y-124903000D01*
X138983134Y-124903000D02*
X143667134Y-124903000D01*
X145983134Y-124903000D02*
X152613605Y-124903000D01*
X155888925Y-124903000D02*
X184017000Y-124903000D01*
X105983000Y-125543000D02*
X106901343Y-125543000D01*
X110176663Y-125543000D02*
X120742163Y-125543000D01*
X124255574Y-125543000D02*
X124722157Y-125543000D01*
X138983134Y-125543000D02*
X143080886Y-125543000D01*
X146570451Y-125543000D02*
X151973605Y-125543000D01*
X155248925Y-125543000D02*
X184017000Y-125543000D01*
X105983000Y-126183000D02*
X107541343Y-126183000D01*
X110816663Y-126183000D02*
X120466251Y-126183000D01*
X124532716Y-126183000D02*
X124707134Y-126183000D01*
X138983134Y-126183000D02*
X142714288Y-126183000D01*
X146936854Y-126183000D02*
X151333605Y-126183000D01*
X154608925Y-126183000D02*
X184017000Y-126183000D01*
X105983000Y-126823000D02*
X108181343Y-126823000D01*
X111456663Y-126823000D02*
X120460743Y-126823000D01*
X124537323Y-126823000D02*
X124707134Y-126823000D01*
X138983134Y-126823000D02*
X142610790Y-126823000D01*
X147041612Y-126823000D02*
X150693605Y-126823000D01*
X153968925Y-126823000D02*
X184017000Y-126823000D01*
X105983000Y-127463000D02*
X108821343Y-127463000D01*
X112096663Y-127463000D02*
X120717089Y-127463000D01*
X124282497Y-127463000D02*
X124707134Y-127463000D01*
X138983134Y-127463000D02*
X142733351Y-127463000D01*
X146915012Y-127463000D02*
X150053605Y-127463000D01*
X153328925Y-127463000D02*
X184017000Y-127463000D01*
X105983000Y-128103000D02*
X109461343Y-128103000D01*
X112736663Y-128103000D02*
X121508539Y-128103000D01*
X123497991Y-128103000D02*
X124707134Y-128103000D01*
X138983134Y-128103000D02*
X142644877Y-128103000D01*
X147000747Y-128103000D02*
X149413605Y-128103000D01*
X152688925Y-128103000D02*
X184017000Y-128103000D01*
X105983000Y-128743000D02*
X110101343Y-128743000D01*
X113376663Y-128743000D02*
X124707134Y-128743000D01*
X138983134Y-128743000D02*
X142612741Y-128743000D01*
X152048925Y-128743000D02*
X184017000Y-128743000D01*
X105983000Y-129383000D02*
X110741343Y-129383000D01*
X114016663Y-129383000D02*
X124707134Y-129383000D01*
X138983134Y-129383000D02*
X142612741Y-129383000D01*
X151408925Y-129383000D02*
X184017000Y-129383000D01*
X105983000Y-130023000D02*
X111381343Y-130023000D01*
X114656663Y-130023000D02*
X124707134Y-130023000D01*
X138983134Y-130023000D02*
X142612741Y-130023000D01*
X150768925Y-130023000D02*
X184017000Y-130023000D01*
X105983000Y-130663000D02*
X112021343Y-130663000D01*
X115296663Y-130663000D02*
X124707134Y-130663000D01*
X138983134Y-130663000D02*
X142682886Y-130663000D01*
X146965486Y-130663000D02*
X184017000Y-130663000D01*
X105983000Y-131303000D02*
X112661343Y-131303000D01*
X115936663Y-131303000D02*
X124707134Y-131303000D01*
X138983134Y-131303000D02*
X184017000Y-131303000D01*
X105983000Y-131943000D02*
X113301343Y-131943000D01*
X116576663Y-131943000D02*
X124313569Y-131943000D01*
X138983134Y-131943000D02*
X184017000Y-131943000D01*
X105983000Y-132583000D02*
X113941343Y-132583000D01*
X117216663Y-132583000D02*
X124113093Y-132583000D01*
X138953671Y-132583000D02*
X184017000Y-132583000D01*
X105983000Y-133223000D02*
X114581343Y-133223000D01*
X117856663Y-133223000D02*
X124151786Y-133223000D01*
X138568924Y-133223000D02*
X184017000Y-133223000D01*
X105983000Y-133863000D02*
X115221343Y-133863000D01*
X118496663Y-133863000D02*
X121788175Y-133863000D01*
X137928924Y-133863000D02*
X184017000Y-133863000D01*
X105983000Y-134503000D02*
X115861343Y-134503000D01*
X137288924Y-134503000D02*
X184017000Y-134503000D01*
X105983000Y-135143000D02*
X116501343Y-135143000D01*
X136648924Y-135143000D02*
X184017000Y-135143000D01*
X105983000Y-135783000D02*
X117141343Y-135783000D01*
X136008924Y-135783000D02*
X184017000Y-135783000D01*
X105983000Y-136423000D02*
X117961211Y-136423000D01*
X135368924Y-136423000D02*
X184017000Y-136423000D01*
X105983000Y-137063000D02*
X122194032Y-137063000D01*
X124432118Y-137063000D02*
X124943871Y-137063000D01*
X134728924Y-137063000D02*
X184017000Y-137063000D01*
X105983000Y-137703000D02*
X125561343Y-137703000D01*
X134088924Y-137703000D02*
X184017000Y-137703000D01*
X105983000Y-138343000D02*
X126201343Y-138343000D01*
X133448924Y-138343000D02*
X184017000Y-138343000D01*
X105983000Y-138983000D02*
X127273144Y-138983000D01*
X132367263Y-138983000D02*
X184017000Y-138983000D01*
X184017000Y-139017000D02*
X105983000Y-139017000D01*
X105983000Y-98829131D01*
X106167134Y-98829131D01*
X106167134Y-124329131D01*
X106177575Y-124435613D01*
X106186895Y-124542146D01*
X106188594Y-124547993D01*
X106189188Y-124554054D01*
X106220095Y-124656422D01*
X106249947Y-124759175D01*
X106252751Y-124764585D01*
X106254510Y-124770410D01*
X106304697Y-124864799D01*
X106353953Y-124959823D01*
X106357753Y-124964584D01*
X106360611Y-124969958D01*
X106428214Y-125052847D01*
X106494952Y-125136448D01*
X106503312Y-125144927D01*
X106503451Y-125145097D01*
X106503609Y-125145227D01*
X106506304Y-125147961D01*
X117506304Y-136147961D01*
X117589014Y-136215900D01*
X117670902Y-136284612D01*
X117676235Y-136287544D01*
X117680943Y-136291411D01*
X117775207Y-136341955D01*
X117868949Y-136393490D01*
X117874757Y-136395332D01*
X117880120Y-136398208D01*
X117982380Y-136429472D01*
X118084372Y-136461826D01*
X118090423Y-136462505D01*
X118096246Y-136464285D01*
X118202677Y-136475096D01*
X118308966Y-136487018D01*
X118320866Y-136487101D01*
X118321091Y-136487124D01*
X118321300Y-136487104D01*
X118325134Y-136487131D01*
X121607063Y-136487131D01*
X121636621Y-136582576D01*
X121777888Y-136796957D01*
X121973288Y-136963495D01*
X122207347Y-137069002D01*
X122461534Y-137105124D01*
X124188734Y-137105124D01*
X124333330Y-137093593D01*
X124578579Y-137017644D01*
X124792960Y-136876377D01*
X124815514Y-136849914D01*
X124844697Y-136904799D01*
X124893953Y-136999823D01*
X124897753Y-137004584D01*
X124900611Y-137009958D01*
X124968214Y-137092847D01*
X125034952Y-137176448D01*
X125043312Y-137184927D01*
X125043451Y-137185097D01*
X125043609Y-137185227D01*
X125046304Y-137187961D01*
X126506304Y-138647961D01*
X126588992Y-138715881D01*
X126670902Y-138784612D01*
X126676238Y-138787546D01*
X126680944Y-138791411D01*
X126775186Y-138841943D01*
X126868949Y-138893490D01*
X126874757Y-138895332D01*
X126880120Y-138898208D01*
X126982367Y-138929468D01*
X127084372Y-138961826D01*
X127090425Y-138962505D01*
X127096247Y-138964285D01*
X127202668Y-138975095D01*
X127308966Y-138987018D01*
X127320867Y-138987101D01*
X127321092Y-138987124D01*
X127321301Y-138987104D01*
X127325134Y-138987131D01*
X132325134Y-138987131D01*
X132431616Y-138976690D01*
X132538149Y-138967370D01*
X132543996Y-138965671D01*
X132550057Y-138965077D01*
X132652425Y-138934170D01*
X132755178Y-138904318D01*
X132760588Y-138901514D01*
X132766413Y-138899755D01*
X132860802Y-138849568D01*
X132955826Y-138800312D01*
X132960587Y-138796512D01*
X132965961Y-138793654D01*
X133048850Y-138726051D01*
X133132451Y-138659313D01*
X133140930Y-138650953D01*
X133141100Y-138650814D01*
X133141230Y-138650656D01*
X133143964Y-138647961D01*
X138643964Y-133147960D01*
X138711864Y-133065297D01*
X138780615Y-132983363D01*
X138783549Y-132978027D01*
X138787414Y-132973321D01*
X138837946Y-132879079D01*
X138889493Y-132785316D01*
X138891335Y-132779508D01*
X138894211Y-132774145D01*
X138925471Y-132671898D01*
X138957829Y-132569893D01*
X138958508Y-132563840D01*
X138960288Y-132558018D01*
X138971098Y-132451597D01*
X138983021Y-132345299D01*
X138983104Y-132333398D01*
X138983127Y-132333173D01*
X138983107Y-132332964D01*
X138983134Y-132329131D01*
X138983134Y-126775811D01*
X142606496Y-126775811D01*
X142640246Y-127146655D01*
X142745383Y-127503880D01*
X142858000Y-127719296D01*
X142754370Y-127840885D01*
X142648863Y-128074944D01*
X142612741Y-128329131D01*
X142612741Y-130329131D01*
X142624272Y-130473727D01*
X142700221Y-130718976D01*
X142841488Y-130933357D01*
X143036888Y-131099895D01*
X143270947Y-131205402D01*
X143525134Y-131241524D01*
X146125134Y-131241524D01*
X146269730Y-131229993D01*
X146514979Y-131154044D01*
X146729360Y-131012777D01*
X146895898Y-130817377D01*
X147001405Y-130583318D01*
X147015074Y-130487131D01*
X149825134Y-130487131D01*
X149931616Y-130476690D01*
X150038149Y-130467370D01*
X150043996Y-130465671D01*
X150050057Y-130465077D01*
X150152425Y-130434170D01*
X150255178Y-130404318D01*
X150260588Y-130401514D01*
X150266413Y-130399755D01*
X150360802Y-130349568D01*
X150455826Y-130300312D01*
X150460587Y-130296512D01*
X150465961Y-130293654D01*
X150548850Y-130226051D01*
X150632451Y-130159313D01*
X150640930Y-130150953D01*
X150641100Y-130150814D01*
X150641230Y-130150656D01*
X150643964Y-130147961D01*
X157058731Y-123733194D01*
X157475826Y-123659648D01*
X157916100Y-123488877D01*
X158314820Y-123235842D01*
X158656798Y-122910181D01*
X158929008Y-122524298D01*
X159121083Y-122092892D01*
X159225705Y-121632394D01*
X159233237Y-121093014D01*
X159141513Y-120629775D01*
X158961559Y-120193174D01*
X158700229Y-119799841D01*
X158367478Y-119464758D01*
X157975979Y-119200688D01*
X157540644Y-119017691D01*
X157078056Y-118922735D01*
X156605835Y-118919438D01*
X156141966Y-119007926D01*
X155704119Y-119184828D01*
X155308971Y-119443405D01*
X154971574Y-119773809D01*
X154704778Y-120163455D01*
X154518745Y-120597501D01*
X154420562Y-121059415D01*
X154413969Y-121531602D01*
X154499216Y-121996077D01*
X154673057Y-122435148D01*
X154833107Y-122683498D01*
X149345474Y-128171131D01*
X147021845Y-128171131D01*
X146950047Y-127939286D01*
X146808780Y-127724905D01*
X146794927Y-127713098D01*
X146894733Y-127528511D01*
X147004848Y-127172788D01*
X147043772Y-126802451D01*
X147010022Y-126431607D01*
X146904885Y-126074382D01*
X146732364Y-125744380D01*
X146499032Y-125454173D01*
X146213775Y-125214814D01*
X145983134Y-125088019D01*
X145983134Y-121489561D01*
X148414626Y-121489561D01*
X148482172Y-121857592D01*
X148619916Y-122205494D01*
X148822612Y-122520015D01*
X149082538Y-122789177D01*
X149389794Y-123002725D01*
X149732677Y-123152527D01*
X150098126Y-123232876D01*
X150472222Y-123240712D01*
X150840716Y-123175737D01*
X151189571Y-123040425D01*
X151505500Y-122839930D01*
X151776469Y-122581890D01*
X151992158Y-122276132D01*
X152144349Y-121934303D01*
X152227248Y-121569424D01*
X152233216Y-121142042D01*
X152160538Y-120774990D01*
X152017949Y-120429045D01*
X151810882Y-120117384D01*
X151547224Y-119851878D01*
X151237016Y-119642641D01*
X150892075Y-119497641D01*
X150525539Y-119422402D01*
X150151370Y-119419790D01*
X149783820Y-119489904D01*
X149436888Y-119630073D01*
X149123789Y-119834959D01*
X148856449Y-120096758D01*
X148645051Y-120405497D01*
X148497646Y-120749418D01*
X148419850Y-121115419D01*
X148414626Y-121489561D01*
X145983134Y-121489561D01*
X145983134Y-115808791D01*
X148444080Y-113347844D01*
X148756910Y-113671788D01*
X149144684Y-113941298D01*
X149577421Y-114130356D01*
X150038638Y-114231761D01*
X150510767Y-114241651D01*
X150975826Y-114159648D01*
X151416100Y-113988877D01*
X151814820Y-113735842D01*
X152156798Y-113410181D01*
X152429008Y-113024298D01*
X152621083Y-112592892D01*
X152725705Y-112132394D01*
X152727112Y-112031602D01*
X154413969Y-112031602D01*
X154499216Y-112496077D01*
X154673057Y-112935148D01*
X154928869Y-113332092D01*
X155256910Y-113671788D01*
X155644684Y-113941298D01*
X156077421Y-114130356D01*
X156538638Y-114231761D01*
X157010767Y-114241651D01*
X157475826Y-114159648D01*
X157916100Y-113988877D01*
X158314820Y-113735842D01*
X158656798Y-113410181D01*
X158929008Y-113024298D01*
X159121083Y-112592892D01*
X159225705Y-112132394D01*
X159233237Y-111593014D01*
X159141513Y-111129775D01*
X158961559Y-110693174D01*
X158700229Y-110299841D01*
X158367478Y-109964758D01*
X157975979Y-109700688D01*
X157540644Y-109517691D01*
X157078056Y-109422735D01*
X156605835Y-109419438D01*
X156141966Y-109507926D01*
X155704119Y-109684828D01*
X155308971Y-109943405D01*
X154971574Y-110273809D01*
X154704778Y-110663455D01*
X154518745Y-111097501D01*
X154420562Y-111559415D01*
X154413969Y-112031602D01*
X152727112Y-112031602D01*
X152733237Y-111593014D01*
X152641513Y-111129775D01*
X152461559Y-110693174D01*
X152200229Y-110299841D01*
X151867478Y-109964758D01*
X151475979Y-109700688D01*
X151040644Y-109517691D01*
X150578056Y-109422735D01*
X150105835Y-109419438D01*
X149641966Y-109507926D01*
X149204119Y-109684828D01*
X148808971Y-109943405D01*
X148471574Y-110273809D01*
X148204778Y-110663455D01*
X148196170Y-110683539D01*
X148112118Y-110690892D01*
X148106270Y-110692591D01*
X148100211Y-110693185D01*
X147997855Y-110724088D01*
X147895090Y-110753944D01*
X147889680Y-110756748D01*
X147883855Y-110758507D01*
X147789427Y-110808715D01*
X147694442Y-110857951D01*
X147689685Y-110861749D01*
X147684307Y-110864608D01*
X147601415Y-110932213D01*
X147517816Y-110998949D01*
X147509341Y-111007307D01*
X147509168Y-111007448D01*
X147509035Y-111007609D01*
X147506304Y-111010302D01*
X144006304Y-114510301D01*
X143938365Y-114593011D01*
X143869653Y-114674899D01*
X143866721Y-114680232D01*
X143862854Y-114684940D01*
X143812310Y-114779204D01*
X143760775Y-114872946D01*
X143758933Y-114878754D01*
X143756057Y-114884117D01*
X143724793Y-114986377D01*
X143692439Y-115088369D01*
X143691760Y-115094420D01*
X143689980Y-115100243D01*
X143679169Y-115206674D01*
X143667247Y-115312963D01*
X143667164Y-115324863D01*
X143667141Y-115325088D01*
X143667161Y-115325297D01*
X143667134Y-115329131D01*
X143667134Y-125089026D01*
X143458579Y-125199917D01*
X143170008Y-125435270D01*
X142932646Y-125722191D01*
X142755535Y-126049751D01*
X142645420Y-126405474D01*
X142606496Y-126775811D01*
X138983134Y-126775811D01*
X138983134Y-124065134D01*
X138972693Y-123958652D01*
X138963373Y-123852119D01*
X138961674Y-123846272D01*
X138961080Y-123840211D01*
X138930173Y-123737843D01*
X138900321Y-123635090D01*
X138897517Y-123629680D01*
X138895758Y-123623855D01*
X138845571Y-123529466D01*
X138796315Y-123434442D01*
X138792515Y-123429681D01*
X138789657Y-123424307D01*
X138722054Y-123341418D01*
X138655316Y-123257817D01*
X138646956Y-123249338D01*
X138646817Y-123249168D01*
X138646659Y-123249038D01*
X138643964Y-123246304D01*
X132140788Y-116743128D01*
X132153073Y-116703441D01*
X132187916Y-116371924D01*
X132157705Y-116039953D01*
X132063588Y-115720172D01*
X131909151Y-115424762D01*
X131700277Y-115164975D01*
X131611600Y-115090566D01*
X131683473Y-115031947D01*
X131895954Y-114775101D01*
X132054500Y-114481877D01*
X132118288Y-114275811D01*
X136106496Y-114275811D01*
X136140246Y-114646655D01*
X136245383Y-115003880D01*
X136358000Y-115219296D01*
X136254370Y-115340885D01*
X136148863Y-115574944D01*
X136112741Y-115829131D01*
X136112741Y-117829131D01*
X136124272Y-117973727D01*
X136200221Y-118218976D01*
X136341488Y-118433357D01*
X136536888Y-118599895D01*
X136770947Y-118705402D01*
X137025134Y-118741524D01*
X139625134Y-118741524D01*
X139769730Y-118729993D01*
X140014979Y-118654044D01*
X140229360Y-118512777D01*
X140395898Y-118317377D01*
X140501405Y-118083318D01*
X140537527Y-117829131D01*
X140537527Y-115829131D01*
X140525996Y-115684535D01*
X140450047Y-115439286D01*
X140308780Y-115224905D01*
X140294927Y-115213098D01*
X140394733Y-115028511D01*
X140504848Y-114672788D01*
X140543772Y-114302451D01*
X140510022Y-113931607D01*
X140404885Y-113574382D01*
X140232364Y-113244380D01*
X139999032Y-112954173D01*
X139713775Y-112714814D01*
X139387459Y-112535421D01*
X139032514Y-112422825D01*
X138662458Y-112381317D01*
X138635818Y-112381131D01*
X138014450Y-112381131D01*
X137643851Y-112417469D01*
X137287368Y-112525097D01*
X136958579Y-112699917D01*
X136670008Y-112935270D01*
X136432646Y-113222191D01*
X136255535Y-113549751D01*
X136145420Y-113905474D01*
X136106496Y-114275811D01*
X132118288Y-114275811D01*
X132153073Y-114163441D01*
X132187916Y-113831924D01*
X132157705Y-113499953D01*
X132063588Y-113180172D01*
X131909151Y-112884762D01*
X131700277Y-112624975D01*
X131611600Y-112550566D01*
X131683473Y-112491947D01*
X131895954Y-112235101D01*
X132054500Y-111941877D01*
X132153073Y-111623441D01*
X132187916Y-111291924D01*
X132157705Y-110959953D01*
X132063588Y-110640172D01*
X131909151Y-110344762D01*
X131700277Y-110084975D01*
X131444922Y-109870706D01*
X131152811Y-109710117D01*
X130835071Y-109609324D01*
X130503805Y-109572166D01*
X130479958Y-109572000D01*
X129760042Y-109572000D01*
X129428290Y-109604529D01*
X129109174Y-109700875D01*
X128814849Y-109857371D01*
X128556527Y-110068053D01*
X128344046Y-110324899D01*
X128185500Y-110618123D01*
X128086927Y-110936559D01*
X128052084Y-111268076D01*
X128082295Y-111600047D01*
X128176412Y-111919828D01*
X128330849Y-112215238D01*
X128539723Y-112475025D01*
X128628400Y-112549434D01*
X128556527Y-112608053D01*
X128344046Y-112864899D01*
X128185500Y-113158123D01*
X128086927Y-113476559D01*
X128052084Y-113808076D01*
X128082295Y-114140047D01*
X128176412Y-114459828D01*
X128330849Y-114755238D01*
X128539723Y-115015025D01*
X128628400Y-115089434D01*
X128556527Y-115148053D01*
X128344046Y-115404899D01*
X128185500Y-115698123D01*
X128086927Y-116016559D01*
X128052084Y-116348076D01*
X128082295Y-116680047D01*
X128176412Y-116999828D01*
X128330849Y-117295238D01*
X128539723Y-117555025D01*
X128628400Y-117629434D01*
X128556527Y-117688053D01*
X128344046Y-117944899D01*
X128185500Y-118238123D01*
X128086927Y-118556559D01*
X128052084Y-118888076D01*
X128082295Y-119220047D01*
X128176412Y-119539828D01*
X128330849Y-119835238D01*
X128539723Y-120095025D01*
X128628400Y-120169434D01*
X128556527Y-120228053D01*
X128344046Y-120484899D01*
X128185500Y-120778123D01*
X128086927Y-121096559D01*
X128052084Y-121428076D01*
X128082295Y-121760047D01*
X128100486Y-121821854D01*
X125046304Y-124876036D01*
X124978365Y-124958746D01*
X124909653Y-125040634D01*
X124906721Y-125045967D01*
X124902854Y-125050675D01*
X124852310Y-125144939D01*
X124800775Y-125238681D01*
X124798933Y-125244489D01*
X124796057Y-125249852D01*
X124764793Y-125352112D01*
X124732439Y-125454104D01*
X124731760Y-125460155D01*
X124729980Y-125465978D01*
X124719169Y-125572409D01*
X124707247Y-125678698D01*
X124707164Y-125690598D01*
X124707141Y-125690823D01*
X124707161Y-125691032D01*
X124707134Y-125694866D01*
X124707134Y-131449252D01*
X124625610Y-131514799D01*
X124403363Y-131779663D01*
X124236794Y-132082652D01*
X124132248Y-132412223D01*
X124093707Y-132755824D01*
X124093534Y-132780559D01*
X124093534Y-132797703D01*
X124127274Y-133141809D01*
X124227208Y-133472807D01*
X124276557Y-133565618D01*
X124188734Y-133553138D01*
X122461534Y-133553138D01*
X122316938Y-133564669D01*
X122071689Y-133640618D01*
X121857308Y-133781885D01*
X121690770Y-133977285D01*
X121603390Y-134171131D01*
X118804794Y-134171131D01*
X108483134Y-123849471D01*
X108483134Y-110849395D01*
X108609724Y-110980483D01*
X108857134Y-111152437D01*
X108857134Y-112019131D01*
X108867575Y-112125613D01*
X108876895Y-112232146D01*
X108878594Y-112237993D01*
X108879188Y-112244054D01*
X108910095Y-112346422D01*
X108939947Y-112449175D01*
X108942751Y-112454585D01*
X108944510Y-112460410D01*
X108994697Y-112554799D01*
X109043953Y-112649823D01*
X109047753Y-112654584D01*
X109050611Y-112659958D01*
X109118214Y-112742847D01*
X109184952Y-112826448D01*
X109193312Y-112834927D01*
X109193451Y-112835097D01*
X109193609Y-112835227D01*
X109196304Y-112837961D01*
X111847328Y-115488984D01*
X111820286Y-115576343D01*
X111781362Y-115946680D01*
X111815112Y-116317524D01*
X111920249Y-116674749D01*
X112092770Y-117004751D01*
X112326102Y-117294958D01*
X112611359Y-117534317D01*
X112937675Y-117713710D01*
X113292620Y-117826306D01*
X113662676Y-117867814D01*
X113689316Y-117868000D01*
X114310684Y-117868000D01*
X114681283Y-117831662D01*
X115037766Y-117724034D01*
X115366555Y-117549214D01*
X115655126Y-117313861D01*
X115892488Y-117026940D01*
X116069599Y-116699380D01*
X116179714Y-116343657D01*
X116218638Y-115973320D01*
X116184888Y-115602476D01*
X116079751Y-115245251D01*
X115907230Y-114915249D01*
X115673898Y-114625042D01*
X115388641Y-114385683D01*
X115062325Y-114206290D01*
X114707380Y-114093694D01*
X114337324Y-114052186D01*
X114310684Y-114052000D01*
X113689316Y-114052000D01*
X113685989Y-114052326D01*
X113441739Y-113808076D01*
X120432084Y-113808076D01*
X120462295Y-114140047D01*
X120556412Y-114459828D01*
X120710849Y-114755238D01*
X120919723Y-115015025D01*
X121008400Y-115089434D01*
X120936527Y-115148053D01*
X120724046Y-115404899D01*
X120565500Y-115698123D01*
X120466927Y-116016559D01*
X120432084Y-116348076D01*
X120462295Y-116680047D01*
X120556412Y-116999828D01*
X120710849Y-117295238D01*
X120919723Y-117555025D01*
X121008400Y-117629434D01*
X120936527Y-117688053D01*
X120724046Y-117944899D01*
X120565500Y-118238123D01*
X120466927Y-118556559D01*
X120432084Y-118888076D01*
X120462295Y-119220047D01*
X120556412Y-119539828D01*
X120710849Y-119835238D01*
X120919723Y-120095025D01*
X121008400Y-120169434D01*
X120936527Y-120228053D01*
X120724046Y-120484899D01*
X120565500Y-120778123D01*
X120466927Y-121096559D01*
X120432084Y-121428076D01*
X120462295Y-121760047D01*
X120556412Y-122079828D01*
X120710849Y-122375238D01*
X120919723Y-122635025D01*
X121008400Y-122709434D01*
X120936527Y-122768053D01*
X120724046Y-123024899D01*
X120565500Y-123318123D01*
X120466927Y-123636559D01*
X120432084Y-123968076D01*
X120462295Y-124300047D01*
X120556412Y-124619828D01*
X120710849Y-124915238D01*
X120919723Y-125175025D01*
X121008400Y-125249434D01*
X120936527Y-125308053D01*
X120724046Y-125564899D01*
X120565500Y-125858123D01*
X120466927Y-126176559D01*
X120432084Y-126508076D01*
X120462295Y-126840047D01*
X120556412Y-127159828D01*
X120710849Y-127455238D01*
X120919723Y-127715025D01*
X121175078Y-127929294D01*
X121467189Y-128089883D01*
X121784929Y-128190676D01*
X122116195Y-128227834D01*
X122140042Y-128228000D01*
X122859958Y-128228000D01*
X123191710Y-128195471D01*
X123510826Y-128099125D01*
X123805151Y-127942629D01*
X124063473Y-127731947D01*
X124275954Y-127475101D01*
X124434500Y-127181877D01*
X124533073Y-126863441D01*
X124567916Y-126531924D01*
X124537705Y-126199953D01*
X124443588Y-125880172D01*
X124289151Y-125584762D01*
X124080277Y-125324975D01*
X123991600Y-125250566D01*
X124063473Y-125191947D01*
X124275954Y-124935101D01*
X124434500Y-124641877D01*
X124533073Y-124323441D01*
X124567916Y-123991924D01*
X124537705Y-123659953D01*
X124443588Y-123340172D01*
X124289151Y-123044762D01*
X124080277Y-122784975D01*
X123991600Y-122710566D01*
X124063473Y-122651947D01*
X124275954Y-122395101D01*
X124434500Y-122101877D01*
X124533073Y-121783441D01*
X124567916Y-121451924D01*
X124537705Y-121119953D01*
X124443588Y-120800172D01*
X124289151Y-120504762D01*
X124080277Y-120244975D01*
X123991600Y-120170566D01*
X124063473Y-120111947D01*
X124275954Y-119855101D01*
X124434500Y-119561877D01*
X124533073Y-119243441D01*
X124567916Y-118911924D01*
X124537705Y-118579953D01*
X124443588Y-118260172D01*
X124289151Y-117964762D01*
X124080277Y-117704975D01*
X123991600Y-117630566D01*
X124063473Y-117571947D01*
X124275954Y-117315101D01*
X124434500Y-117021877D01*
X124533073Y-116703441D01*
X124567916Y-116371924D01*
X124537705Y-116039953D01*
X124443588Y-115720172D01*
X124289151Y-115424762D01*
X124080277Y-115164975D01*
X123991600Y-115090566D01*
X124063473Y-115031947D01*
X124275954Y-114775101D01*
X124434500Y-114481877D01*
X124533073Y-114163441D01*
X124567916Y-113831924D01*
X124537705Y-113499953D01*
X124443588Y-113180172D01*
X124289151Y-112884762D01*
X124080277Y-112624975D01*
X123824922Y-112410706D01*
X123532811Y-112250117D01*
X123215071Y-112149324D01*
X122883805Y-112112166D01*
X122859958Y-112112000D01*
X122140042Y-112112000D01*
X121808290Y-112144529D01*
X121489174Y-112240875D01*
X121194849Y-112397371D01*
X120936527Y-112608053D01*
X120724046Y-112864899D01*
X120565500Y-113158123D01*
X120466927Y-113476559D01*
X120432084Y-113808076D01*
X113441739Y-113808076D01*
X111173134Y-111539471D01*
X111173134Y-111150231D01*
X111350160Y-111037887D01*
X111656634Y-110746036D01*
X111900583Y-110400215D01*
X111916169Y-110365209D01*
X111924782Y-110473217D01*
X112000731Y-110718466D01*
X112141998Y-110932847D01*
X112337398Y-111099385D01*
X112571457Y-111204892D01*
X112825644Y-111241014D01*
X114824624Y-111241014D01*
X114969220Y-111229483D01*
X115214469Y-111153534D01*
X115428850Y-111012267D01*
X115595388Y-110816867D01*
X115700895Y-110582808D01*
X115714491Y-110487131D01*
X121910869Y-110487131D01*
X122017351Y-110476690D01*
X122123884Y-110467370D01*
X122129731Y-110465671D01*
X122135792Y-110465077D01*
X122192354Y-110448000D01*
X122859958Y-110448000D01*
X123191710Y-110415471D01*
X123510826Y-110319125D01*
X123805151Y-110162629D01*
X124063473Y-109951947D01*
X124275954Y-109695101D01*
X124434500Y-109401877D01*
X124533073Y-109083441D01*
X124567916Y-108751924D01*
X124537705Y-108419953D01*
X124443588Y-108100172D01*
X124289151Y-107804762D01*
X124080277Y-107544975D01*
X123991600Y-107470566D01*
X124063473Y-107411947D01*
X124275954Y-107155101D01*
X124434500Y-106861877D01*
X124533073Y-106543441D01*
X124567916Y-106211924D01*
X124537705Y-105879953D01*
X124443588Y-105560172D01*
X124289151Y-105264762D01*
X124080277Y-105004975D01*
X123991600Y-104930566D01*
X124063473Y-104871947D01*
X124275954Y-104615101D01*
X124434500Y-104321877D01*
X124533073Y-104003441D01*
X124567916Y-103671924D01*
X124537705Y-103339953D01*
X124443588Y-103020172D01*
X124289151Y-102724762D01*
X124080277Y-102464975D01*
X123991600Y-102390566D01*
X124063473Y-102331947D01*
X124275954Y-102075101D01*
X124434500Y-101781877D01*
X124533073Y-101463441D01*
X124567916Y-101131924D01*
X124537705Y-100799953D01*
X124443588Y-100480172D01*
X124289151Y-100184762D01*
X124080277Y-99924975D01*
X123991600Y-99850566D01*
X124063473Y-99791947D01*
X124275954Y-99535101D01*
X124434500Y-99241877D01*
X124533073Y-98923441D01*
X124567916Y-98591924D01*
X124537705Y-98259953D01*
X124443588Y-97940172D01*
X124289151Y-97644762D01*
X124080277Y-97384975D01*
X123991600Y-97310566D01*
X124063473Y-97251947D01*
X124275954Y-96995101D01*
X124434500Y-96701877D01*
X124533073Y-96383441D01*
X124567916Y-96051924D01*
X124537705Y-95719953D01*
X124443588Y-95400172D01*
X124289151Y-95104762D01*
X124080277Y-94844975D01*
X123991600Y-94770566D01*
X124063473Y-94711947D01*
X124275954Y-94455101D01*
X124434500Y-94161877D01*
X124533073Y-93843441D01*
X124567916Y-93511924D01*
X124565746Y-93488076D01*
X128052084Y-93488076D01*
X128082295Y-93820047D01*
X128176412Y-94139828D01*
X128330849Y-94435238D01*
X128539723Y-94695025D01*
X128628400Y-94769434D01*
X128556527Y-94828053D01*
X128344046Y-95084899D01*
X128185500Y-95378123D01*
X128086927Y-95696559D01*
X128052084Y-96028076D01*
X128082295Y-96360047D01*
X128176412Y-96679828D01*
X128330849Y-96975238D01*
X128539723Y-97235025D01*
X128628400Y-97309434D01*
X128556527Y-97368053D01*
X128344046Y-97624899D01*
X128185500Y-97918123D01*
X128086927Y-98236559D01*
X128052084Y-98568076D01*
X128082295Y-98900047D01*
X128176412Y-99219828D01*
X128330849Y-99515238D01*
X128539723Y-99775025D01*
X128628400Y-99849434D01*
X128556527Y-99908053D01*
X128344046Y-100164899D01*
X128185500Y-100458123D01*
X128086927Y-100776559D01*
X128052084Y-101108076D01*
X128082295Y-101440047D01*
X128176412Y-101759828D01*
X128330849Y-102055238D01*
X128539723Y-102315025D01*
X128628400Y-102389434D01*
X128556527Y-102448053D01*
X128344046Y-102704899D01*
X128185500Y-102998123D01*
X128086927Y-103316559D01*
X128052084Y-103648076D01*
X128082295Y-103980047D01*
X128176412Y-104299828D01*
X128330849Y-104595238D01*
X128539723Y-104855025D01*
X128628400Y-104929434D01*
X128556527Y-104988053D01*
X128344046Y-105244899D01*
X128185500Y-105538123D01*
X128086927Y-105856559D01*
X128052084Y-106188076D01*
X128082295Y-106520047D01*
X128176412Y-106839828D01*
X128330849Y-107135238D01*
X128539723Y-107395025D01*
X128795078Y-107609294D01*
X129087189Y-107769883D01*
X129404929Y-107870676D01*
X129736195Y-107907834D01*
X129760042Y-107908000D01*
X130479958Y-107908000D01*
X130811710Y-107875471D01*
X131130826Y-107779125D01*
X131425151Y-107622629D01*
X131683473Y-107411947D01*
X131722778Y-107364435D01*
X133006304Y-108647961D01*
X133089014Y-108715900D01*
X133170902Y-108784612D01*
X133176235Y-108787544D01*
X133180943Y-108791411D01*
X133275207Y-108841955D01*
X133368949Y-108893490D01*
X133374757Y-108895332D01*
X133380120Y-108898208D01*
X133482380Y-108929472D01*
X133584372Y-108961826D01*
X133590423Y-108962505D01*
X133596246Y-108964285D01*
X133702677Y-108975096D01*
X133808966Y-108987018D01*
X133820866Y-108987101D01*
X133821091Y-108987124D01*
X133821300Y-108987104D01*
X133825134Y-108987131D01*
X136128423Y-108987131D01*
X136200221Y-109218976D01*
X136341488Y-109433357D01*
X136536888Y-109599895D01*
X136770947Y-109705402D01*
X137025134Y-109741524D01*
X139625134Y-109741524D01*
X139769730Y-109729993D01*
X140014979Y-109654044D01*
X140229360Y-109512777D01*
X140395898Y-109317377D01*
X140501405Y-109083318D01*
X140537527Y-108829131D01*
X140537527Y-106829131D01*
X140525996Y-106684535D01*
X140450047Y-106439286D01*
X140308780Y-106224905D01*
X140294927Y-106213098D01*
X140394733Y-106028511D01*
X140504848Y-105672788D01*
X140543772Y-105302451D01*
X140510022Y-104931607D01*
X140404885Y-104574382D01*
X140232364Y-104244380D01*
X139999032Y-103954173D01*
X139713775Y-103714814D01*
X139387459Y-103535421D01*
X139032514Y-103422825D01*
X138662458Y-103381317D01*
X138635818Y-103381131D01*
X138014450Y-103381131D01*
X137643851Y-103417469D01*
X137287368Y-103525097D01*
X136958579Y-103699917D01*
X136670008Y-103935270D01*
X136507977Y-104131131D01*
X136264794Y-104131131D01*
X134974833Y-102841170D01*
X134892123Y-102773231D01*
X134810235Y-102704519D01*
X134804902Y-102701587D01*
X134800194Y-102697720D01*
X134705930Y-102647176D01*
X134612188Y-102595641D01*
X134606380Y-102593799D01*
X134601017Y-102590923D01*
X134498757Y-102559659D01*
X134396765Y-102527305D01*
X134390714Y-102526626D01*
X134384891Y-102524846D01*
X134278460Y-102514035D01*
X134172171Y-102502113D01*
X134160271Y-102502030D01*
X134160046Y-102502007D01*
X134159837Y-102502027D01*
X134156003Y-102502000D01*
X131730046Y-102502000D01*
X131700277Y-102464975D01*
X131611600Y-102390566D01*
X131683473Y-102331947D01*
X131895954Y-102075101D01*
X132054500Y-101781877D01*
X132153073Y-101463441D01*
X132187916Y-101131924D01*
X132157705Y-100799953D01*
X132063588Y-100480172D01*
X131909151Y-100184762D01*
X131700277Y-99924975D01*
X131611600Y-99850566D01*
X131683473Y-99791947D01*
X131895954Y-99535101D01*
X132054500Y-99241877D01*
X132153073Y-98923441D01*
X132187916Y-98591924D01*
X132157705Y-98259953D01*
X132063588Y-97940172D01*
X131909151Y-97644762D01*
X131700277Y-97384975D01*
X131611600Y-97310566D01*
X131683473Y-97251947D01*
X131895954Y-96995101D01*
X132054500Y-96701877D01*
X132153073Y-96383441D01*
X132187916Y-96051924D01*
X132162789Y-95775811D01*
X135606496Y-95775811D01*
X135640246Y-96146655D01*
X135745383Y-96503880D01*
X135858000Y-96719296D01*
X135754370Y-96840885D01*
X135648863Y-97074944D01*
X135612741Y-97329131D01*
X135612741Y-99329131D01*
X135624272Y-99473727D01*
X135700221Y-99718976D01*
X135841488Y-99933357D01*
X136036888Y-100099895D01*
X136270947Y-100205402D01*
X136525134Y-100241524D01*
X139125134Y-100241524D01*
X139269730Y-100229993D01*
X139514979Y-100154044D01*
X139729360Y-100012777D01*
X139895898Y-99817377D01*
X140001405Y-99583318D01*
X140015074Y-99487131D01*
X141843574Y-99487131D01*
X142216609Y-99860166D01*
X142168306Y-100087417D01*
X142162397Y-100510582D01*
X142238794Y-100926835D01*
X142394586Y-101320321D01*
X142623840Y-101676054D01*
X142917824Y-101980483D01*
X143265339Y-102222012D01*
X143653149Y-102391442D01*
X144066482Y-102482319D01*
X144489595Y-102491182D01*
X144906371Y-102417693D01*
X145300936Y-102264652D01*
X145658260Y-102037887D01*
X145964734Y-101746036D01*
X146208683Y-101400215D01*
X146380817Y-101013598D01*
X146474577Y-100600909D01*
X146475544Y-100531602D01*
X146913329Y-100531602D01*
X146998576Y-100996077D01*
X147172417Y-101435148D01*
X147428229Y-101832092D01*
X147756270Y-102171788D01*
X148144044Y-102441298D01*
X148576781Y-102630356D01*
X149037998Y-102731761D01*
X149510127Y-102741651D01*
X149975186Y-102659648D01*
X150415460Y-102488877D01*
X150814180Y-102235842D01*
X151156158Y-101910181D01*
X151428368Y-101524298D01*
X151444916Y-101487131D01*
X154320905Y-101487131D01*
X154321986Y-101488808D01*
X154575101Y-101750915D01*
X154874305Y-101958868D01*
X155208202Y-102104744D01*
X155564075Y-102182988D01*
X155928368Y-102190619D01*
X156287205Y-102127346D01*
X156626918Y-101995580D01*
X156934568Y-101800339D01*
X157198436Y-101549061D01*
X157408472Y-101251316D01*
X157556676Y-100918445D01*
X157637402Y-100563127D01*
X157643214Y-100146945D01*
X157572440Y-99789512D01*
X157433588Y-99452632D01*
X157231948Y-99149139D01*
X156975198Y-98890590D01*
X156673120Y-98686836D01*
X156337218Y-98545636D01*
X155980288Y-98472369D01*
X155615924Y-98469825D01*
X155258005Y-98538101D01*
X154920165Y-98674598D01*
X154615271Y-98874115D01*
X154354937Y-99129053D01*
X154326126Y-99171131D01*
X151446274Y-99171131D01*
X151199589Y-98799841D01*
X150866838Y-98464758D01*
X150475339Y-98200688D01*
X150040004Y-98017691D01*
X149577416Y-97922735D01*
X149105195Y-97919438D01*
X148641326Y-98007926D01*
X148203479Y-98184828D01*
X147808331Y-98443405D01*
X147470934Y-98773809D01*
X147204138Y-99163455D01*
X147018105Y-99597501D01*
X146919922Y-100059415D01*
X146913329Y-100531602D01*
X146475544Y-100531602D01*
X146481327Y-100117528D01*
X146399126Y-99702382D01*
X146237855Y-99311109D01*
X146003656Y-98958612D01*
X145705451Y-98658318D01*
X145354598Y-98421664D01*
X144964460Y-98257665D01*
X144549898Y-98172568D01*
X144126703Y-98169613D01*
X143853494Y-98221731D01*
X143142064Y-97510301D01*
X143059354Y-97442362D01*
X142977466Y-97373650D01*
X142972133Y-97370718D01*
X142967425Y-97366851D01*
X142873161Y-97316307D01*
X142779419Y-97264772D01*
X142773611Y-97262930D01*
X142768248Y-97260054D01*
X142665988Y-97228790D01*
X142563996Y-97196436D01*
X142557945Y-97195757D01*
X142552122Y-97193977D01*
X142445691Y-97183166D01*
X142339402Y-97171244D01*
X142327502Y-97171161D01*
X142327277Y-97171138D01*
X142327068Y-97171158D01*
X142323234Y-97171131D01*
X140021845Y-97171131D01*
X139952476Y-96947131D01*
X142863234Y-96947131D01*
X142969716Y-96936690D01*
X143076249Y-96927370D01*
X143082096Y-96925671D01*
X143088157Y-96925077D01*
X143190525Y-96894170D01*
X143293278Y-96864318D01*
X143298688Y-96861514D01*
X143304513Y-96859755D01*
X143398902Y-96809568D01*
X143493926Y-96760312D01*
X143498687Y-96756512D01*
X143504061Y-96753654D01*
X143586950Y-96686051D01*
X143670551Y-96619313D01*
X143679030Y-96610953D01*
X143679200Y-96610814D01*
X143679330Y-96610656D01*
X143682064Y-96607961D01*
X144354347Y-95935678D01*
X144566482Y-95982319D01*
X144989595Y-95991182D01*
X145406371Y-95917693D01*
X145800936Y-95764652D01*
X146158260Y-95537887D01*
X146464734Y-95246036D01*
X146708683Y-94900215D01*
X146880817Y-94513598D01*
X146974577Y-94100909D01*
X146975544Y-94031602D01*
X147413329Y-94031602D01*
X147498576Y-94496077D01*
X147672417Y-94935148D01*
X147928229Y-95332092D01*
X148256270Y-95671788D01*
X148644044Y-95941298D01*
X149076781Y-96130356D01*
X149537998Y-96231761D01*
X150010127Y-96241651D01*
X150475186Y-96159648D01*
X150915460Y-95988877D01*
X151314180Y-95735842D01*
X151656158Y-95410181D01*
X151928368Y-95024298D01*
X151944916Y-94987131D01*
X154320905Y-94987131D01*
X154321986Y-94988808D01*
X154575101Y-95250915D01*
X154874305Y-95458868D01*
X155208202Y-95604744D01*
X155564075Y-95682988D01*
X155928368Y-95690619D01*
X156287205Y-95627346D01*
X156626918Y-95495580D01*
X156934568Y-95300339D01*
X157198436Y-95049061D01*
X157408472Y-94751316D01*
X157556676Y-94418445D01*
X157637402Y-94063127D01*
X157643214Y-93646945D01*
X157572440Y-93289512D01*
X157433588Y-92952632D01*
X157231948Y-92649139D01*
X156975198Y-92390590D01*
X156673120Y-92186836D01*
X156337218Y-92045636D01*
X155980288Y-91972369D01*
X155615924Y-91969825D01*
X155258005Y-92038101D01*
X154920165Y-92174598D01*
X154615271Y-92374115D01*
X154354937Y-92629053D01*
X154326126Y-92671131D01*
X151946274Y-92671131D01*
X151699589Y-92299841D01*
X151366838Y-91964758D01*
X150975339Y-91700688D01*
X150540004Y-91517691D01*
X150077416Y-91422735D01*
X149605195Y-91419438D01*
X149141326Y-91507926D01*
X148703479Y-91684828D01*
X148308331Y-91943405D01*
X147970934Y-92273809D01*
X147704138Y-92663455D01*
X147518105Y-93097501D01*
X147419922Y-93559415D01*
X147413329Y-94031602D01*
X146975544Y-94031602D01*
X146981327Y-93617528D01*
X146899126Y-93202382D01*
X146737855Y-92811109D01*
X146503656Y-92458612D01*
X146205451Y-92158318D01*
X145854598Y-91921664D01*
X145464460Y-91757665D01*
X145049898Y-91672568D01*
X144626703Y-91669613D01*
X144210993Y-91748914D01*
X143818603Y-91907450D01*
X143464480Y-92139182D01*
X143162111Y-92435283D01*
X142923014Y-92784476D01*
X142756295Y-93173459D01*
X142668306Y-93587417D01*
X142662397Y-94010582D01*
X142715390Y-94299316D01*
X142383574Y-94631131D01*
X139641310Y-94631131D01*
X139499032Y-94454173D01*
X139213775Y-94214814D01*
X138887459Y-94035421D01*
X138532514Y-93922825D01*
X138162458Y-93881317D01*
X138135818Y-93881131D01*
X137514450Y-93881131D01*
X137143851Y-93917469D01*
X136787368Y-94025097D01*
X136458579Y-94199917D01*
X136170008Y-94435270D01*
X135932646Y-94722191D01*
X135755535Y-95049751D01*
X135645420Y-95405474D01*
X135606496Y-95775811D01*
X132162789Y-95775811D01*
X132157705Y-95719953D01*
X132063588Y-95400172D01*
X131909151Y-95104762D01*
X131700277Y-94844975D01*
X131611600Y-94770566D01*
X131683473Y-94711947D01*
X131895954Y-94455101D01*
X132054500Y-94161877D01*
X132153073Y-93843441D01*
X132187916Y-93511924D01*
X132157705Y-93179953D01*
X132063588Y-92860172D01*
X131909151Y-92564762D01*
X131700277Y-92304975D01*
X131444922Y-92090706D01*
X131152811Y-91930117D01*
X130835071Y-91829324D01*
X130503805Y-91792166D01*
X130479958Y-91792000D01*
X129760042Y-91792000D01*
X129428290Y-91824529D01*
X129109174Y-91920875D01*
X128814849Y-92077371D01*
X128556527Y-92288053D01*
X128344046Y-92544899D01*
X128185500Y-92838123D01*
X128086927Y-93156559D01*
X128052084Y-93488076D01*
X124565746Y-93488076D01*
X124537705Y-93179953D01*
X124443588Y-92860172D01*
X124289151Y-92564762D01*
X124080277Y-92304975D01*
X123824922Y-92090706D01*
X123532811Y-91930117D01*
X123215071Y-91829324D01*
X122883805Y-91792166D01*
X122859958Y-91792000D01*
X122140042Y-91792000D01*
X121808290Y-91824529D01*
X121489174Y-91920875D01*
X121194849Y-92077371D01*
X120936527Y-92288053D01*
X120891898Y-92342000D01*
X112654265Y-92342000D01*
X112547783Y-92352441D01*
X112441250Y-92361761D01*
X112435403Y-92363460D01*
X112429342Y-92364054D01*
X112326974Y-92394961D01*
X112224221Y-92424813D01*
X112218811Y-92427617D01*
X112212986Y-92429376D01*
X112118597Y-92479563D01*
X112023573Y-92528819D01*
X112018812Y-92532619D01*
X112013438Y-92535477D01*
X111930549Y-92603080D01*
X111846948Y-92669818D01*
X111838474Y-92678174D01*
X111838299Y-92678317D01*
X111838165Y-92678479D01*
X111835435Y-92681171D01*
X106506304Y-98010301D01*
X106438365Y-98093011D01*
X106369653Y-98174899D01*
X106366721Y-98180232D01*
X106362854Y-98184940D01*
X106312310Y-98279204D01*
X106260775Y-98372946D01*
X106258933Y-98378754D01*
X106256057Y-98384117D01*
X106224793Y-98486377D01*
X106192439Y-98588369D01*
X106191760Y-98594420D01*
X106189980Y-98600243D01*
X106179169Y-98706674D01*
X106167247Y-98812963D01*
X106167164Y-98824863D01*
X106167141Y-98825088D01*
X106167161Y-98825297D01*
X106167134Y-98829131D01*
X105983000Y-98829131D01*
X105983000Y-90983000D01*
X184017000Y-90983000D01*
X184017000Y-139017000D01*
M02*
